0
SECTION
2
HEADER
9
$INSUNITS
70
4
0
ENDSEC
0
SECTION
2
TABLES
0
TABLE
2
LTYPE
0
LTYPE
72
65
70
0
2
CONTINUOUS
3
______
73
0
40
0
0
LTYPE
72
65
70
0
2
DASHED
3
_ _ _ 
73
2
40
7.5
49
5
49
-2.5
0
LTYPE
72
65
70
0
2
DOTTED
3
. . . 
73
2
40
1.5
49
0.5
49
-1
0
ENDTAB
0
TABLE
2
LAYER
0
ENDTAB
0
ENDSEC
0
SECTION
2
ENTITIES
0
LINE
8
0
6
CONTINUOUS
10
140.5
20
-160
11
168.235674
21
-160
0
LINE
8
0
6
CONTINUOUS
10
139.5
20
-159
11
139.5
21
-90
0
LINE
8
0
6
CONTINUOUS
10
151.7168971
20
-89
11
140.5
21
-89
0
LINE
8
0
6
CONTINUOUS
10
168.28801
20
-160.0013705
11
178.2407513
21
-160.5229716
0
LINE
8
0
6
CONTINUOUS
10
151.7673071
20
-88.0381205
11
178.6625034
21
-89.4476381
0
LINE
8
0
6
CONTINUOUS
10
151.7168971
20
-89
11
151.7673071
21
-88.0381205
0
LINE
8
0
6
CONTINUOUS
10
179.9878972
20
-87.6897273
11
187.8663591
21
-89.0789127
0
LINE
8
0
6
CONTINUOUS
10
178.6625034
20
-89.4476381
11
178.8294412
21
-88.5008869
0
LINE
8
0
6
CONTINUOUS
10
189.0248151
20
-88.2677531
11
190.4140005
21
-80.3892912
0
LINE
8
0
6
CONTINUOUS
10
191.5724565
20
-79.5781316
11
263.471733
21
-92.2559139
0
LINE
8
0
6
CONTINUOUS
10
210.6442887
20
-181.5185108
11
178.7351232
21
-160.6842777
0
LINE
8
0
6
CONTINUOUS
10
264.2843287
20
-93.4060181
11
259.7357125
21
-120.545416
0
LINE
8
0
6
CONTINUOUS
10
260.5483082
20
-121.6955202
11
277.3936823
21
-124.6658142
0
LINE
8
0
6
CONTINUOUS
10
278.2173785
20
-125.7234519
11
273.607661
21
-188.8496984
0
LINE
8
0
6
CONTINUOUS
10
210.5245115
20
-181.847596
11
230.2580566
21
-189.030019
0
LINE
8
0
6
CONTINUOUS
10
230.2580566
20
-189.030019
11
230.2926194
21
-188.9350586
0
LINE
8
0
6
CONTINUOUS
10
210.6442887
20
-181.5185108
11
210.5245115
21
-181.847596
0
LINE
8
0
6
CONTINUOUS
10
230.2926194
20
-188.9350586
11
246.1120413
21
-196.3117762
0
LINE
8
0
6
CONTINUOUS
10
246.189423
20
-196.3520586
11
262.7249396
21
-205.8988436
0
LINE
8
0
6
CONTINUOUS
10
264.090965
20
-205.5328182
11
273.476342
21
-189.2768685
0
ARC
8
0
6
CONTINUOUS
10
168.235674
20
-161
40
1
50
86.9999974
51
90
0
ARC
8
0
6
CONTINUOUS
10
178.1884153
20
-161.5216011
40
1
50
56.8585471
51
86.9999974
0
ARC
8
0
6
CONTINUOUS
10
245.689423
20
-197.218084
40
1
50
59.9999999
51
64.9999983
0
ARC
8
0
6
CONTINUOUS
10
263.2249396
20
-205.0328182
40
1
50
239.9999999
51
329.9999999
0
ARC
8
0
6
CONTINUOUS
10
272.6103166
20
-188.7768685
40
1
50
329.9999999
51
355.8234564
0
ARC
8
0
6
CONTINUOUS
10
277.2200341
20
-125.650622
40
1
50
355.8234564
51
79.9999992
0
ARC
8
0
6
CONTINUOUS
10
260.7219564
20
-120.7107124
40
1
50
170.4855463
51
259.9999992
0
ARC
8
0
6
CONTINUOUS
10
263.2980848
20
-93.2407217
40
1
50
350.4855463
51
79.9999992
0
ARC
8
0
6
CONTINUOUS
10
191.3988083
20
-80.5629394
40
1
50
79.9999992
51
169.9999992
0
ARC
8
0
6
CONTINUOUS
10
188.0400073
20
-88.0941049
40
1
50
259.9999992
51
349.9999992
0
ARC
8
0
6
CONTINUOUS
10
179.814249
20
-88.6745351
40
1
50
79.9999992
51
169.9999992
0
ARC
8
0
6
CONTINUOUS
10
140.5
20
-90
40
1
50
90
51
180
0
ARC
8
0
6
CONTINUOUS
10
140.5
20
-159
40
1
50
180
51
270
0
ENDSEC
0
EOF