0
SECTION
2
HEADER
9
$INSUNITS
70
4
0
ENDSEC
0
SECTION
2
TABLES
0
TABLE
2
LTYPE
0
LTYPE
72
65
70
0
2
CONTINUOUS
3
______
73
0
40
0
0
LTYPE
72
65
70
0
2
DASHED
3
_ _ _ 
73
2
40
7.5
49
5
49
-2.5
0
LTYPE
72
65
70
0
2
DOTTED
3
. . . 
73
2
40
1.5
49
0.5
49
-1
0
ENDTAB
0
TABLE
2
LAYER
0
ENDTAB
0
ENDSEC
0
SECTION
2
ENTITIES
0
LINE
8
0
6
CONTINUOUS
10
140.5
20
-160
11
168.235674
21
-160
0
LINE
8
0
6
CONTINUOUS
10
139.5
20
-159
11
139.5
21
-90
0
LINE
8
0
6
CONTINUOUS
10
151.7168971
20
-89
11
140.5
21
-89
0
LINE
8
0
6
CONTINUOUS
10
168.28801
20
-160.0013705
11
178.2407513
21
-160.5229716
0
LINE
8
0
6
CONTINUOUS
10
151.7673071
20
-88.0381205
11
178.6625034
21
-89.4476381
0
LINE
8
0
6
CONTINUOUS
10
151.7168971
20
-89
11
151.7673071
21
-88.0381205
0
LINE
8
0
6
CONTINUOUS
10
179.9878972
20
-87.6897273
11
187.8663591
21
-89.0789127
0
LINE
8
0
6
CONTINUOUS
10
178.6625034
20
-89.4476381
11
178.8294412
21
-88.5008869
0
LINE
8
0
6
CONTINUOUS
10
189.0248151
20
-88.2677531
11
190.4140005
21
-80.3892912
0
LINE
8
0
6
CONTINUOUS
10
191.5724565
20
-79.5781316
11
263.471733
21
-92.2559139
0
LINE
8
0
6
CONTINUOUS
10
210.6442887
20
-181.5185108
11
178.7351232
21
-160.6842777
0
LINE
8
0
6
CONTINUOUS
10
264.2843287
20
-93.4060181
11
259.7357125
21
-120.545416
0
LINE
8
0
6
CONTINUOUS
10
260.5483082
20
-121.6955202
11
277.3936823
21
-124.6658142
0
LINE
8
0
6
CONTINUOUS
10
278.2173785
20
-125.7234519
11
273.607661
21
-188.8496984
0
LINE
8
0
6
CONTINUOUS
10
210.5245115
20
-181.847596
11
230.2580566
21
-189.030019
0
LINE
8
0
6
CONTINUOUS
10
230.2580566
20
-189.030019
11
230.2926194
21
-188.9350586
0
LINE
8
0
6
CONTINUOUS
10
210.6442887
20
-181.5185108
11
210.5245115
21
-181.847596
0
LINE
8
0
6
CONTINUOUS
10
230.2926194
20
-188.9350586
11
246.1120413
21
-196.3117762
0
LINE
8
0
6
CONTINUOUS
10
246.189423
20
-196.3520586
11
262.7249396
21
-205.8988436
0
LINE
8
0
6
CONTINUOUS
10
264.090965
20
-205.5328182
11
273.476342
21
-189.2768685
0
ARC
8
0
6
CONTINUOUS
10
168.235674
20
-161
40
1
50
86.9999974
51
90
0
ARC
8
0
6
CONTINUOUS
10
178.1884153
20
-161.5216011
40
1
50
56.8585471
51
86.9999974
0
ARC
8
0
6
CONTINUOUS
10
245.689423
20
-197.218084
40
1
50
59.9999999
51
64.9999983
0
ARC
8
0
6
CONTINUOUS
10
263.2249396
20
-205.0328182
40
1
50
239.9999999
51
329.9999999
0
ARC
8
0
6
CONTINUOUS
10
272.6103166
20
-188.7768685
40
1
50
329.9999999
51
355.8234564
0
ARC
8
0
6
CONTINUOUS
10
277.2200341
20
-125.650622
40
1
50
355.8234564
51
79.9999992
0
ARC
8
0
6
CONTINUOUS
10
260.7219564
20
-120.7107124
40
1
50
170.4855463
51
259.9999992
0
ARC
8
0
6
CONTINUOUS
10
263.2980848
20
-93.2407217
40
1
50
350.4855463
51
79.9999992
0
ARC
8
0
6
CONTINUOUS
10
191.3988083
20
-80.5629394
40
1
50
79.9999992
51
169.9999992
0
ARC
8
0
6
CONTINUOUS
10
188.0400073
20
-88.0941049
40
1
50
259.9999992
51
349.9999992
0
ARC
8
0
6
CONTINUOUS
10
179.814249
20
-88.6745351
40
1
50
79.9999992
51
169.9999992
0
ARC
8
0
6
CONTINUOUS
10
140.5
20
-90
40
1
50
90
51
180
0
ARC
8
0
6
CONTINUOUS
10
140.5
20
-159
40
1
50
180
51
270
0
CIRCLE
8
0
6
CONTINUOUS
10
160.6354987
20
-107.542827
40
2.15
0
CIRCLE
8
0
6
CONTINUOUS
10
159.7457874
20
-141.5195291
40
2.15
0
CIRCLE
8
0
6
CONTINUOUS
10
240.295506
20
-117.1089782
40
2.15
0
CIRCLE
8
0
6
CONTINUOUS
10
205.9053413
20
-165.08184
40
2.15
0
CIRCLE
8
0
6
CONTINUOUS
10
255.3366764
20
-178.2174661
40
2.15
0
LINE
8
0
6
CONTINUOUS
10
256.9100071
20
-142.3779485
11
272.1745272
21
-145.0694952
0
LINE
8
0
6
CONTINUOUS
10
273.3329832
20
-144.2583356
11
276.6322985
21
-125.5469883
0
LINE
8
0
6
CONTINUOUS
10
259.3981628
20
-122.5081452
11
256.0988475
21
-141.2194925
0
ARC
8
0
6
CONTINUOUS
10
272.3481754
20
-144.0846874
40
1
50
259.9999977
51
349.9999992
0
ARC
8
0
6
CONTINUOUS
10
275.6474907
20
-125.3733401
40
1
50
349.9999977
51
79.9999992
0
ARC
8
0
6
CONTINUOUS
10
260.3829706
20
-122.6817934
40
1
50
79.9999977
51
169.9999992
0
ARC
8
0
6
CONTINUOUS
10
257.0836553
20
-141.3931407
40
1
50
169.9999977
51
259.9999992
0
LINE
8
0
6
CONTINUOUS
10
262.7305086
20
-128.832888
11
271.3377283
21
-130.3505731
0
LINE
8
0
6
CONTINUOUS
10
271.4535739
20
-130.2694571
11
272.6951584
21
-123.2280818
0
LINE
8
0
6
CONTINUOUS
10
272.6140424
20
-123.1122362
11
264.0068227
21
-121.5945511
0
LINE
8
0
6
CONTINUOUS
10
263.8909771
20
-121.6756671
11
262.6493926
21
-128.7170424
0
ARC
8
0
6
CONTINUOUS
10
272.191892
20
-144.9710144
40
0.1
50
259.9999977
51
259.9999992
0
ARC
8
0
6
CONTINUOUS
10
276.5338177
20
-125.5296235
40
0.1
50
349.9999977
51
349.9999992
0
ARC
8
0
6
CONTINUOUS
10
260.539254
20
-121.7954664
40
0.1
50
79.9999977
51
79.9999992
0
ARC
8
0
6
CONTINUOUS
10
256.1973283
20
-141.2368573
40
0.1
50
169.9999977
51
169.9999992
0
ARC
8
0
6
CONTINUOUS
10
271.3550931
20
-130.2520923
40
0.1
50
259.9999992
51
349.9999992
0
ARC
8
0
6
CONTINUOUS
10
272.5966776
20
-123.210717
40
0.1
50
349.9999992
51
79.9999992
0
ARC
8
0
6
CONTINUOUS
10
263.9894579
20
-121.6930319
40
0.1
50
79.9999992
51
169.9999992
0
ARC
8
0
6
CONTINUOUS
10
262.7478734
20
-128.7344072
40
0.1
50
169.9999992
51
259.9999992
0
LINE
8
0
6
CONTINUOUS
10
141.25
20
-158.25
11
158.75
21
-158.25
0
LINE
8
0
6
CONTINUOUS
10
158.75
20
-158.25
11
158.75
21
-141.75
0
LINE
8
0
6
CONTINUOUS
10
158.75
20
-141.75
11
141.25
21
-141.75
0
LINE
8
0
6
CONTINUOUS
10
141.25
20
-141.75
11
141.25
21
-158.25
0
LINE
8
0
6
CONTINUOUS
10
141.25
20
-141.25
11
158.75
21
-141.25
0
LINE
8
0
6
CONTINUOUS
10
158.75
20
-141.25
11
158.75
21
-124.75
0
LINE
8
0
6
CONTINUOUS
10
158.75
20
-124.75
11
141.25
21
-124.75
0
LINE
8
0
6
CONTINUOUS
10
141.25
20
-124.75
11
141.25
21
-141.25
0
LINE
8
0
6
CONTINUOUS
10
141.25
20
-124.25
11
158.75
21
-124.25
0
LINE
8
0
6
CONTINUOUS
10
158.75
20
-124.25
11
158.75
21
-107.75
0
LINE
8
0
6
CONTINUOUS
10
158.75
20
-107.75
11
141.25
21
-107.75
0
LINE
8
0
6
CONTINUOUS
10
141.25
20
-107.75
11
141.25
21
-124.25
0
LINE
8
0
6
CONTINUOUS
10
141.25
20
-107.25
11
158.75
21
-107.25
0
LINE
8
0
6
CONTINUOUS
10
158.75
20
-107.25
11
158.75
21
-90.75
0
LINE
8
0
6
CONTINUOUS
10
158.75
20
-90.75
11
141.25
21
-90.75
0
LINE
8
0
6
CONTINUOUS
10
141.25
20
-90.75
11
141.25
21
-107.25
0
LINE
8
0
6
CONTINUOUS
10
159.876939
20
-157.8081633
11
177.3529559
21
-158.7240426
0
LINE
8
0
6
CONTINUOUS
10
177.3529559
20
-158.7240426
11
178.2164992
21
-142.2466553
0
LINE
8
0
6
CONTINUOUS
10
178.2164992
20
-142.2466553
11
160.7404823
21
-141.330776
0
LINE
8
0
6
CONTINUOUS
10
160.7404823
20
-141.330776
11
159.876939
21
-157.8081633
0
LINE
8
0
6
CONTINUOUS
10
160.7666503
20
-140.8314612
11
178.2426672
21
-141.7473405
0
LINE
8
0
6
CONTINUOUS
10
178.2426672
20
-141.7473405
11
179.1062105
21
-125.2699532
0
LINE
8
0
6
CONTINUOUS
10
179.1062105
20
-125.2699532
11
161.6301936
21
-124.3540739
0
LINE
8
0
6
CONTINUOUS
10
161.6301936
20
-124.3540739
11
160.7666503
21
-140.8314612
0
LINE
8
0
6
CONTINUOUS
10
161.6563616
20
-123.8547591
11
179.1323785
21
-124.7706384
0
LINE
8
0
6
CONTINUOUS
10
179.1323785
20
-124.7706384
11
179.9959218
21
-108.2932511
0
LINE
8
0
6
CONTINUOUS
10
179.9959218
20
-108.2932511
11
162.5199049
21
-107.3773718
0
LINE
8
0
6
CONTINUOUS
10
162.5199049
20
-107.3773718
11
161.6563616
21
-123.8547591
0
LINE
8
0
6
CONTINUOUS
10
162.5460729
20
-106.878057
11
180.0220898
21
-107.7939363
0
LINE
8
0
6
CONTINUOUS
10
180.0220898
20
-107.7939363
11
180.8856331
21
-91.316549
0
LINE
8
0
6
CONTINUOUS
10
180.8856331
20
-91.316549
11
163.4096162
21
-90.4006697
0
LINE
8
0
6
CONTINUOUS
10
163.4096162
20
-90.4006697
11
162.5460729
21
-106.878057
0
LINE
8
0
6
CONTINUOUS
10
179.7649815
20
-150.8607278
11
196.9991172
21
-153.8995709
0
LINE
8
0
6
CONTINUOUS
10
196.9991172
20
-153.8995709
11
199.8643121
21
-137.650243
0
LINE
8
0
6
CONTINUOUS
10
199.8643121
20
-137.650243
11
182.6301764
21
-134.6113999
0
LINE
8
0
6
CONTINUOUS
10
182.6301764
20
-134.6113999
11
179.7649815
21
-150.8607278
0
LINE
8
0
6
CONTINUOUS
10
182.7170005
20
-134.118996
11
199.9511362
21
-137.1578391
0
LINE
8
0
6
CONTINUOUS
10
199.9511362
20
-137.1578391
11
202.8163311
21
-120.9085112
0
LINE
8
0
6
CONTINUOUS
10
202.8163311
20
-120.9085112
11
185.5821954
21
-117.8696681
0
LINE
8
0
6
CONTINUOUS
10
185.5821954
20
-117.8696681
11
182.7170005
21
-134.118996
0
LINE
8
0
6
CONTINUOUS
10
185.6690195
20
-117.3772642
11
202.9031552
21
-120.4161073
0
LINE
8
0
6
CONTINUOUS
10
202.9031552
20
-120.4161073
11
205.7683501
21
-104.1667794
0
LINE
8
0
6
CONTINUOUS
10
205.7683501
20
-104.1667794
11
188.5342144
21
-101.1279363
0
LINE
8
0
6
CONTINUOUS
10
188.5342144
20
-101.1279363
11
185.6690195
21
-117.3772642
0
LINE
8
0
6
CONTINUOUS
10
188.6210385
20
-100.6355324
11
205.8551742
21
-103.6743755
0
LINE
8
0
6
CONTINUOUS
10
205.8551742
20
-103.6743755
11
208.7203691
21
-87.4250476
0
LINE
8
0
6
CONTINUOUS
10
208.7203691
20
-87.4250476
11
191.4862334
21
-84.3862045
0
LINE
8
0
6
CONTINUOUS
10
191.4862334
20
-84.3862045
11
188.6210385
21
-100.6355324
0
LINE
8
0
6
CONTINUOUS
10
198.0124656
20
-151.0319718
11
215.2466013
21
-154.0708149
0
LINE
8
0
6
CONTINUOUS
10
215.2466013
20
-154.0708149
11
218.1117962
21
-137.821487
0
LINE
8
0
6
CONTINUOUS
10
218.1117962
20
-137.821487
11
200.8776605
21
-134.7826439
0
LINE
8
0
6
CONTINUOUS
10
200.8776605
20
-134.7826439
11
198.0124656
21
-151.0319718
0
LINE
8
0
6
CONTINUOUS
10
200.9644846
20
-134.29024
11
218.1986203
21
-137.3290831
0
LINE
8
0
6
CONTINUOUS
10
218.1986203
20
-137.3290831
11
221.0638152
21
-121.0797552
0
LINE
8
0
6
CONTINUOUS
10
221.0638152
20
-121.0797552
11
203.8296795
21
-118.0409121
0
LINE
8
0
6
CONTINUOUS
10
203.8296795
20
-118.0409121
11
200.9644846
21
-134.29024
0
LINE
8
0
6
CONTINUOUS
10
203.9165036
20
-117.5485082
11
221.1506393
21
-120.5873513
0
LINE
8
0
6
CONTINUOUS
10
221.1506393
20
-120.5873513
11
224.0158342
21
-104.3380234
0
LINE
8
0
6
CONTINUOUS
10
224.0158342
20
-104.3380234
11
206.7816985
21
-101.2991803
0
LINE
8
0
6
CONTINUOUS
10
206.7816985
20
-101.2991803
11
203.9165036
21
-117.5485082
0
LINE
8
0
6
CONTINUOUS
10
206.8685226
20
-100.8067764
11
224.1026583
21
-103.8456195
0
LINE
8
0
6
CONTINUOUS
10
224.1026583
20
-103.8456195
11
226.9678532
21
-87.5962916
0
LINE
8
0
6
CONTINUOUS
10
226.9678532
20
-87.5962916
11
209.7337175
21
-84.5574485
0
LINE
8
0
6
CONTINUOUS
10
209.7337175
20
-84.5574485
11
206.8685226
21
-100.8067764
0
LINE
8
0
6
CONTINUOUS
10
214.3498198
20
-162.036101
11
231.5839555
21
-165.0749441
0
LINE
8
0
6
CONTINUOUS
10
231.5839555
20
-165.0749441
11
234.4491504
21
-148.8256162
0
LINE
8
0
6
CONTINUOUS
10
234.4491504
20
-148.8256162
11
217.2150147
21
-145.7867731
0
LINE
8
0
6
CONTINUOUS
10
217.2150147
20
-145.7867731
11
214.3498198
21
-162.036101
0
LINE
8
0
6
CONTINUOUS
10
217.3018388
20
-145.2943692
11
234.5359745
21
-148.3332123
0
LINE
8
0
6
CONTINUOUS
10
234.5359745
20
-148.3332123
11
237.4011694
21
-132.0838844
0
LINE
8
0
6
CONTINUOUS
10
237.4011694
20
-132.0838844
11
220.1670337
21
-129.0450413
0
LINE
8
0
6
CONTINUOUS
10
220.1670337
20
-129.0450413
11
217.3018388
21
-145.2943692
0
LINE
8
0
6
CONTINUOUS
10
220.2538578
20
-128.5526374
11
237.4879935
21
-131.5914805
0
LINE
8
0
6
CONTINUOUS
10
237.4879935
20
-131.5914805
11
240.3531884
21
-115.3421526
0
LINE
8
0
6
CONTINUOUS
10
240.3531884
20
-115.3421526
11
223.1190527
21
-112.3033095
0
LINE
8
0
6
CONTINUOUS
10
223.1190527
20
-112.3033095
11
220.2538578
21
-128.5526374
0
LINE
8
0
6
CONTINUOUS
10
223.2058768
20
-111.8109056
11
240.4400125
21
-114.8497487
0
LINE
8
0
6
CONTINUOUS
10
240.4400125
20
-114.8497487
11
243.3052074
21
-98.6004208
0
LINE
8
0
6
CONTINUOUS
10
243.3052074
20
-98.6004208
11
226.0710717
21
-95.5615777
0
LINE
8
0
6
CONTINUOUS
10
226.0710717
20
-95.5615777
11
223.2058768
21
-111.8109056
0
LINE
8
0
6
CONTINUOUS
10
231.729063
20
-167.1313837
11
248.9631987
21
-170.1702268
0
LINE
8
0
6
CONTINUOUS
10
248.9631987
20
-170.1702268
11
251.8283936
21
-153.9208989
0
LINE
8
0
6
CONTINUOUS
10
251.8283936
20
-153.9208989
11
234.5942579
21
-150.8820558
0
LINE
8
0
6
CONTINUOUS
10
234.5942579
20
-150.8820558
11
231.729063
21
-167.1313837
0
LINE
8
0
6
CONTINUOUS
10
234.681082
20
-150.3896519
11
251.9152177
21
-153.428495
0
LINE
8
0
6
CONTINUOUS
10
251.9152177
20
-153.428495
11
254.7804126
21
-137.1791671
0
LINE
8
0
6
CONTINUOUS
10
254.7804126
20
-137.1791671
11
237.5462769
21
-134.140324
0
LINE
8
0
6
CONTINUOUS
10
237.5462769
20
-134.140324
11
234.681082
21
-150.3896519
0
LINE
8
0
6
CONTINUOUS
10
237.633101
20
-133.6479201
11
254.8672367
21
-136.6867632
0
LINE
8
0
6
CONTINUOUS
10
254.8672367
20
-136.6867632
11
257.7324316
21
-120.4374353
0
LINE
8
0
6
CONTINUOUS
10
257.7324316
20
-120.4374353
11
240.4982959
21
-117.3985922
0
LINE
8
0
6
CONTINUOUS
10
240.4982959
20
-117.3985922
11
237.633101
21
-133.6479201
0
LINE
8
0
6
CONTINUOUS
10
240.58512
20
-116.9061883
11
257.8192557
21
-119.9450314
0
LINE
8
0
6
CONTINUOUS
10
257.8192557
20
-119.9450314
11
260.6844506
21
-103.6957035
0
LINE
8
0
6
CONTINUOUS
10
260.6844506
20
-103.6957035
11
243.4503149
21
-100.6568604
0
LINE
8
0
6
CONTINUOUS
10
243.4503149
20
-100.6568604
11
240.58512
21
-116.9061883
0
LINE
8
0
6
CONTINUOUS
10
212.7675089
20
-180.8016692
11
229.2121297
21
-186.7870217
0
LINE
8
0
6
CONTINUOUS
10
229.2121297
20
-186.7870217
11
234.8554621
21
-171.2820934
0
LINE
8
0
6
CONTINUOUS
10
234.8554621
20
-171.2820934
11
218.4108413
21
-165.2967409
0
LINE
8
0
6
CONTINUOUS
10
218.4108413
20
-165.2967409
11
212.7675089
21
-180.8016692
0
LINE
8
0
6
CONTINUOUS
10
230.4114463
20
-187.0595572
11
246.2718326
21
-194.4553767
0
LINE
8
0
6
CONTINUOUS
10
246.2718326
20
-194.4553767
11
253.2450339
21
-179.5012982
0
LINE
8
0
6
CONTINUOUS
10
253.2450339
20
-179.5012982
11
237.3846476
21
-172.1054787
0
LINE
8
0
6
CONTINUOUS
10
237.3846476
20
-172.1054787
11
230.4114463
21
-187.0595572
0
LINE
8
0
6
CONTINUOUS
10
247.794976
20
-195.2582992
11
262.9504206
21
-204.0082992
0
LINE
8
0
6
CONTINUOUS
10
262.9504206
20
-204.0082992
11
271.2004206
21
-189.71888
0
LINE
8
0
6
CONTINUOUS
10
271.2004206
20
-189.71888
11
256.044976
21
-180.96888
0
LINE
8
0
6
CONTINUOUS
10
256.044976
20
-180.96888
11
247.794976
21
-195.2582992
0
ENDSEC
0
EOF