0
SECTION
2
HEADER
9
$INSUNITS
70
4
0
ENDSEC
0
SECTION
2
TABLES
0
TABLE
2
LTYPE
0
LTYPE
72
65
70
0
2
CONTINUOUS
3
______
73
0
40
0
0
LTYPE
72
65
70
0
2
DASHED
3
_ _ _ 
73
2
40
7.5
49
5
49
-2.5
0
LTYPE
72
65
70
0
2
DOTTED
3
. . . 
73
2
40
1.5
49
0.5
49
-1
0
ENDTAB
0
TABLE
2
LAYER
0
ENDTAB
0
ENDSEC
0
SECTION
2
ENTITIES
0
LINE
8
0
6
CONTINUOUS
10
140.5
20
-160
11
168.235674
21
-160
0
LINE
8
0
6
CONTINUOUS
10
139.5
20
-159
11
139.5
21
-90
0
LINE
8
0
6
CONTINUOUS
10
151.7168971
20
-89
11
140.5
21
-89
0
LINE
8
0
6
CONTINUOUS
10
168.28801
20
-160.0013705
11
178.0103402
21
-160.5108962
0
LINE
8
0
6
CONTINUOUS
10
179.0613057
20
-159.5646026
11
179.3229854
21
-154.571455
0
LINE
8
0
6
CONTINUOUS
10
187.4147515
20
-153.9941541
11
180.3739509
21
-153.6251614
0
LINE
8
0
6
CONTINUOUS
10
151.7673071
20
-88.0381205
11
178.6625034
21
-89.4476381
0
LINE
8
0
6
CONTINUOUS
10
151.7168971
20
-89
11
151.7673071
21
-88.0381205
0
LINE
8
0
6
CONTINUOUS
10
187.5360637
20
-154.0079758
11
207.2819162
21
-157.4897024
0
LINE
8
0
6
CONTINUOUS
10
208.6140203
20
-155.6937351
11
208.4403722
21
-156.6785428
0
LINE
8
0
6
CONTINUOUS
10
179.9878972
20
-87.6897273
11
187.8663591
21
-89.0789127
0
LINE
8
0
6
CONTINUOUS
10
178.6625034
20
-89.4476381
11
178.8294412
21
-88.5008869
0
LINE
8
0
6
CONTINUOUS
10
196.9603584
20
-83.5744438
11
191.051512
21
-82.5325548
0
LINE
8
0
6
CONTINUOUS
10
185.4590961
20
-108.4899508
11
190.2403524
21
-81.3740989
0
LINE
8
0
6
CONTINUOUS
10
228.7644216
20
-93.2440648
11
237.6276914
21
-94.8068984
0
LINE
8
0
6
CONTINUOUS
10
237.6276914
20
-94.8068984
11
237.4540432
21
-95.7917061
0
LINE
8
0
6
CONTINUOUS
10
227.953262
20
-92.0856088
11
228.8215029
21
-87.1615701
0
LINE
8
0
6
CONTINUOUS
10
192.5572642
20
-79.7517798
11
262.4952356
21
-92.0837311
0
LINE
8
0
6
CONTINUOUS
10
198.1188144
20
-82.7632842
11
198.2924625
21
-81.7784766
0
LINE
8
0
6
CONTINUOUS
10
213.3073297
20
-163.6292785
11
214.5760713
21
-163.8529919
0
LINE
8
0
6
CONTINUOUS
10
224.2449727
20
-165.55788
11
229.0642537
21
-166.4076493
0
LINE
8
0
6
CONTINUOUS
10
213.364411
20
-157.5467838
11
212.4961701
21
-162.4708225
0
LINE
8
0
6
CONTINUOUS
10
212.5532514
20
-156.3883278
11
208.6140203
21
-155.6937351
0
LINE
8
0
6
CONTINUOUS
10
245.1588571
20
-98.1656992
11
245.3325053
21
-97.1808915
0
LINE
8
0
6
CONTINUOUS
10
245.3325053
20
-97.1808915
11
237.4540432
21
-95.7917061
0
LINE
8
0
6
CONTINUOUS
10
235.0679212
20
-169.4971111
11
249.3979201
21
-172.0238765
0
LINE
8
0
6
CONTINUOUS
10
250.5563761
20
-171.2127169
11
262.5381003
21
-103.260982
0
LINE
8
0
6
CONTINUOUS
10
229.8754133
20
-167.5661053
11
229.8686054
21
-167.6047149
0
LINE
8
0
6
CONTINUOUS
10
245.9700167
20
-99.3241552
11
261.7269407
21
-102.102526
0
ARC
8
0
6
CONTINUOUS
10
168.235674
20
-161
40
1
50
86.9999974
51
90
0
ARC
8
0
6
CONTINUOUS
10
178.0626762
20
-159.5122667
40
1
50
266.9999974
51
357.0000031
0
ARC
8
0
6
CONTINUOUS
10
180.3216149
20
-154.6237909
40
1
50
86.9999974
51
177.0000031
0
ARC
8
0
6
CONTINUOUS
10
187.3624155
20
-154.9927836
40
1
50
79.9999992
51
86.9999974
0
ARC
8
0
6
CONTINUOUS
10
207.4555644
20
-156.5048946
40
1
50
259.9999992
51
349.9999992
0
ARC
8
0
6
CONTINUOUS
10
212.3796032
20
-157.3731356
40
1
50
349.9999992
51
79.9999992
0
ARC
8
0
6
CONTINUOUS
10
213.4809779
20
-162.6444707
40
1
50
169.9999992
51
259.9999992
0
ARC
8
0
6
CONTINUOUS
10
228.8906055
20
-167.3924571
40
1
50
349.9999992
51
79.9999992
0
ARC
8
0
6
CONTINUOUS
10
249.5715683
20
-171.0390687
40
1
50
259.9999992
51
349.9999992
0
ARC
8
0
6
CONTINUOUS
10
261.5532925
20
-103.0873338
40
1
50
349.9999992
51
79.9999992
0
ARC
8
0
6
CONTINUOUS
10
246.1436649
20
-98.3393474
40
1
50
169.9999992
51
259.9999992
0
ARC
8
0
6
CONTINUOUS
10
228.9380698
20
-92.259257
40
1
50
169.9999992
51
259.9999992
0
ARC
8
0
6
CONTINUOUS
10
227.8366951
20
-86.9879219
40
1
50
349.9999992
51
79.9999992
0
ARC
8
0
6
CONTINUOUS
10
199.2772703
20
-81.9521248
40
1
50
79.9999992
51
169.9999992
0
ARC
8
0
6
CONTINUOUS
10
197.1340066
20
-82.589636
40
1
50
259.9999992
51
349.9999992
0
ARC
8
0
6
CONTINUOUS
10
190.8778638
20
-83.5173626
40
1
50
79.9999992
51
169.9999992
0
ARC
8
0
6
CONTINUOUS
10
188.0400073
20
-88.0941049
40
1
50
259.9999992
51
349.9999992
0
ARC
8
0
6
CONTINUOUS
10
179.814249
20
-88.6745351
40
1
50
79.9999992
51
169.9999992
0
ARC
8
0
6
CONTINUOUS
10
140.5
20
-90
40
1
50
90
51
180
0
ARC
8
0
6
CONTINUOUS
10
140.5
20
-159
40
1
50
180
51
270
0
LINE
8
0
6
CONTINUOUS
10
210.5245115
20
-181.847596
11
230.2580566
21
-189.030019
0
LINE
8
0
6
CONTINUOUS
10
230.2580566
20
-189.030019
11
230.2926194
21
-188.9350586
0
LINE
8
0
6
CONTINUOUS
10
236.4375772
20
-169.9956251
11
235.0679212
21
-169.4971111
0
LINE
8
0
6
CONTINUOUS
10
229.8686054
20
-167.6047149
11
224.2449727
21
-165.55788
0
LINE
8
0
6
CONTINUOUS
10
210.5245115
20
-181.847596
11
216.1081601
21
-166.5066476
0
LINE
8
0
6
CONTINUOUS
10
230.2926194
20
-188.9350586
11
246.072471
21
-196.2933242
0
LINE
8
0
6
CONTINUOUS
10
252.0787427
20
-177.0265365
11
236.538191
21
-169.7798581
0
LINE
8
0
6
CONTINUOUS
10
236.538191
20
-169.7798581
11
236.4375772
21
-169.9956251
0
LINE
8
0
6
CONTINUOUS
10
246.2272344
20
-196.373889
11
261.8589142
21
-205.3988436
0
LINE
8
0
6
CONTINUOUS
10
264.590965
20
-204.6667928
11
272.590965
21
-190.8103864
0
LINE
8
0
6
CONTINUOUS
10
271.8589142
20
-188.0783356
11
258.2011367
21
-180.1930141
0
LINE
8
0
6
CONTINUOUS
10
178.5096549
20
-160.5370642
11
211.9340505
21
-182.3606262
0
LINE
8
0
6
CONTINUOUS
10
178.5096549
20
-160.5370642
11
178.5135748
21
-160.4048419
0
LINE
8
0
6
CONTINUOUS
10
178.5135748
20
-160.4048419
11
179.7953911
21
-117.1662546
0
LINE
8
0
6
CONTINUOUS
10
180.1810717
20
-116.0436528
11
185.1029217
21
-109.3245206
0
LINE
8
0
6
CONTINUOUS
10
264.1204271
20
-94.3839394
11
259.8996141
21
-119.5674947
0
LINE
8
0
6
CONTINUOUS
10
261.5248056
20
-121.867703
11
276.5042064
21
-124.5089756
0
LINE
8
0
6
CONTINUOUS
10
278.1515988
20
-126.6242509
11
273.6359905
21
-188.4617494
0
LINE
8
0
6
CONTINUOUS
10
273.2058493
20
-189.5619592
11
267.2919269
21
-196.9885896
0
LINE
8
0
6
CONTINUOUS
10
211.9340505
20
-182.3606262
11
267.2919269
21
-196.9885896
0
ARC
8
0
6
CONTINUOUS
10
240.295506
20
-117.1089782
40
2.15
50
115.515984
51
475.515984
0
ARC
8
0
6
CONTINUOUS
10
255.3366764
20
-178.2174661
40
2.15
50
188.6155585
51
296.6966996
0
LINE
8
0
6
CONTINUOUS
10
143.25
20
-158.25
11
156.75
21
-158.25
0
LINE
8
0
6
CONTINUOUS
10
158.75
20
-156.25
11
158.75
21
-143.75
0
LINE
8
0
6
CONTINUOUS
10
156.75
20
-141.75
11
143.25
21
-141.75
0
LINE
8
0
6
CONTINUOUS
10
141.25
20
-143.75
11
141.25
21
-156.25
0
LINE
8
0
6
CONTINUOUS
10
143.25
20
-141.25
11
156.75
21
-141.25
0
LINE
8
0
6
CONTINUOUS
10
158.75
20
-139.25
11
158.75
21
-126.75
0
LINE
8
0
6
CONTINUOUS
10
156.75
20
-124.75
11
143.25
21
-124.75
0
LINE
8
0
6
CONTINUOUS
10
141.25
20
-126.75
11
141.25
21
-139.25
0
LINE
8
0
6
CONTINUOUS
10
143.25
20
-124.25
11
156.75
21
-124.25
0
LINE
8
0
6
CONTINUOUS
10
158.75
20
-122.25
11
158.75
21
-109.75
0
LINE
8
0
6
CONTINUOUS
10
156.75
20
-107.75
11
143.25
21
-107.75
0
LINE
8
0
6
CONTINUOUS
10
141.25
20
-109.75
11
141.25
21
-122.25
0
LINE
8
0
6
CONTINUOUS
10
143.25
20
-107.25
11
156.75
21
-107.25
0
LINE
8
0
6
CONTINUOUS
10
158.75
20
-105.25
11
158.75
21
-92.75
0
LINE
8
0
6
CONTINUOUS
10
156.75
20
-90.75
11
143.25
21
-90.75
0
LINE
8
0
6
CONTINUOUS
10
141.25
20
-92.75
11
141.25
21
-105.25
0
LINE
8
0
6
CONTINUOUS
10
161.874198
20
-157.9128352
11
175.3556967
21
-158.6193707
0
LINE
8
0
6
CONTINUOUS
10
177.4576278
20
-156.7267836
11
178.1118273
21
-144.2439145
0
LINE
8
0
6
CONTINUOUS
10
176.2192402
20
-142.1419834
11
162.7377415
21
-141.4354479
0
LINE
8
0
6
CONTINUOUS
10
160.6358104
20
-143.328035
11
159.9816109
21
-155.8109041
0
LINE
8
0
6
CONTINUOUS
10
162.7639093
20
-140.9361331
11
176.245408
21
-141.6426686
0
LINE
8
0
6
CONTINUOUS
10
178.3473391
20
-139.7500815
11
179.0015386
21
-127.2672124
0
LINE
8
0
6
CONTINUOUS
10
177.1089515
20
-125.1652813
11
163.6274528
21
-124.4587458
0
LINE
8
0
6
CONTINUOUS
10
161.5255217
20
-126.3513329
11
160.8713222
21
-138.834202
0
LINE
8
0
6
CONTINUOUS
10
163.6536206
20
-123.959431
11
177.1351193
21
-124.6659665
0
LINE
8
0
6
CONTINUOUS
10
179.2370504
20
-122.7733794
11
179.8912499
21
-110.2905103
0
LINE
8
0
6
CONTINUOUS
10
177.9986628
20
-108.1885792
11
164.5171641
21
-107.4820437
0
LINE
8
0
6
CONTINUOUS
10
162.415233
20
-109.3746308
11
161.7610335
21
-121.8574999
0
LINE
8
0
6
CONTINUOUS
10
164.5433319
20
-106.9827289
11
178.0248306
21
-107.6892644
0
LINE
8
0
6
CONTINUOUS
10
180.1267617
20
-105.7966773
11
180.7809612
21
-93.3138082
0
LINE
8
0
6
CONTINUOUS
10
178.8883741
20
-91.2118771
11
165.4068754
21
-90.5053416
0
LINE
8
0
6
CONTINUOUS
10
163.3049443
20
-92.3979287
11
162.6507448
21
-104.8807978
0
LINE
8
0
6
CONTINUOUS
10
181.734597
20
-151.2080241
11
195.0295017
21
-153.5522745
0
LINE
8
0
6
CONTINUOUS
10
197.3464135
20
-151.9299554
11
199.5170157
21
-139.6198585
0
LINE
8
0
6
CONTINUOUS
10
197.8946966
20
-137.3029467
11
184.5997919
21
-134.9586963
0
LINE
8
0
6
CONTINUOUS
10
182.2828801
20
-136.5810154
11
180.1122779
21
-148.8911123
0
LINE
8
0
6
CONTINUOUS
10
184.686616
20
-134.4662923
11
197.9815207
21
-136.8105427
0
LINE
8
0
6
CONTINUOUS
10
200.2984325
20
-135.1882236
11
202.4690347
21
-122.8781267
0
LINE
8
0
6
CONTINUOUS
10
200.8467156
20
-120.5612149
11
187.5518109
21
-118.2169645
0
LINE
8
0
6
CONTINUOUS
10
185.2348991
20
-119.8392836
11
183.0642969
21
-132.1493805
0
LINE
8
0
6
CONTINUOUS
10
187.638635
20
-117.7245605
11
200.9335397
21
-120.0688109
0
LINE
8
0
6
CONTINUOUS
10
203.2504515
20
-118.4464918
11
205.4210537
21
-106.1363949
0
LINE
8
0
6
CONTINUOUS
10
203.7987346
20
-103.8194831
11
190.5038299
21
-101.4752327
0
LINE
8
0
6
CONTINUOUS
10
188.1869181
20
-103.0975518
11
186.0163159
21
-115.4076487
0
LINE
8
0
6
CONTINUOUS
10
190.590654
20
-100.9828287
11
203.8855587
21
-103.3270791
0
LINE
8
0
6
CONTINUOUS
10
206.2024705
20
-101.70476
11
208.3730727
21
-89.3946631
0
LINE
8
0
6
CONTINUOUS
10
206.7507536
20
-87.0777513
11
193.4558489
21
-84.7335009
0
LINE
8
0
6
CONTINUOUS
10
191.1389371
20
-86.35582
11
188.9683349
21
-98.6659169
0
LINE
8
0
6
CONTINUOUS
10
199.9820811
20
-151.3792681
11
213.2769858
21
-153.7235185
0
LINE
8
0
6
CONTINUOUS
10
215.5938976
20
-152.1011994
11
217.7644998
21
-139.7911025
0
LINE
8
0
6
CONTINUOUS
10
216.1421807
20
-137.4741907
11
202.847276
21
-135.1299403
0
LINE
8
0
6
CONTINUOUS
10
200.5303642
20
-136.7522594
11
198.359762
21
-149.0623563
0
LINE
8
0
6
CONTINUOUS
10
202.9341001
20
-134.6375363
11
216.2290048
21
-136.9817867
0
LINE
8
0
6
CONTINUOUS
10
218.5459166
20
-135.3594676
11
220.7165188
21
-123.0493707
0
LINE
8
0
6
CONTINUOUS
10
219.0941997
20
-120.7324589
11
205.799295
21
-118.3882085
0
LINE
8
0
6
CONTINUOUS
10
203.4823832
20
-120.0105276
11
201.311781
21
-132.3206245
0
LINE
8
0
6
CONTINUOUS
10
205.8861191
20
-117.8958045
11
219.1810238
21
-120.2400549
0
LINE
8
0
6
CONTINUOUS
10
221.4979356
20
-118.6177358
11
223.6685378
21
-106.3076389
0
LINE
8
0
6
CONTINUOUS
10
222.0462187
20
-103.9907271
11
208.751314
21
-101.6464767
0
LINE
8
0
6
CONTINUOUS
10
206.4344022
20
-103.2687958
11
204.2638
21
-115.5788927
0
LINE
8
0
6
CONTINUOUS
10
208.8381381
20
-101.1540727
11
222.1330428
21
-103.4983231
0
LINE
8
0
6
CONTINUOUS
10
224.4499546
20
-101.876004
11
226.6205568
21
-89.5659071
0
LINE
8
0
6
CONTINUOUS
10
224.9982377
20
-87.2489953
11
211.703333
21
-84.9047449
0
LINE
8
0
6
CONTINUOUS
10
209.3864212
20
-86.527064
11
207.215819
21
-98.8371609
0
LINE
8
0
6
CONTINUOUS
10
216.3194353
20
-162.3833973
11
229.61434
21
-164.7276477
0
LINE
8
0
6
CONTINUOUS
10
231.9312518
20
-163.1053286
11
234.101854
21
-150.7952317
0
LINE
8
0
6
CONTINUOUS
10
232.4795349
20
-148.4783199
11
219.1846302
21
-146.1340695
0
LINE
8
0
6
CONTINUOUS
10
216.8677184
20
-147.7563886
11
214.6971162
21
-160.0664855
0
LINE
8
0
6
CONTINUOUS
10
219.2714543
20
-145.6416655
11
232.566359
21
-147.9859159
0
LINE
8
0
6
CONTINUOUS
10
234.8832708
20
-146.3635968
11
237.053873
21
-134.0534999
0
LINE
8
0
6
CONTINUOUS
10
235.4315539
20
-131.7365881
11
222.1366492
21
-129.3923377
0
LINE
8
0
6
CONTINUOUS
10
219.8197374
20
-131.0146568
11
217.6491352
21
-143.3247537
0
LINE
8
0
6
CONTINUOUS
10
222.2234733
20
-128.8999337
11
235.518378
21
-131.2441841
0
LINE
8
0
6
CONTINUOUS
10
237.8352898
20
-129.621865
11
240.3531884
21
-115.3421526
0
LINE
8
0
6
CONTINUOUS
10
225.0886682
20
-112.6506059
11
240.3531884
21
-115.3421526
0
LINE
8
0
6
CONTINUOUS
10
222.7717564
20
-114.272925
11
220.6011542
21
-126.5830219
0
LINE
8
0
6
CONTINUOUS
10
225.1754923
20
-112.1582019
11
238.470397
21
-114.5024523
0
LINE
8
0
6
CONTINUOUS
10
240.7873088
20
-112.8801332
11
242.957911
21
-100.5700363
0
LINE
8
0
6
CONTINUOUS
10
241.3355919
20
-98.2531245
11
228.0406872
21
-95.9088741
0
LINE
8
0
6
CONTINUOUS
10
225.7237754
20
-97.5311932
11
223.5531732
21
-109.8412901
0
LINE
8
0
6
CONTINUOUS
10
233.6986785
20
-167.47868
11
246.9935832
21
-169.8229304
0
LINE
8
0
6
CONTINUOUS
10
249.310495
20
-168.2006113
11
251.4810972
21
-155.8905144
0
LINE
8
0
6
CONTINUOUS
10
249.8587781
20
-153.5736026
11
236.5638734
21
-151.2293522
0
LINE
8
0
6
CONTINUOUS
10
234.2469616
20
-152.8516713
11
232.0763594
21
-165.1617682
0
LINE
8
0
6
CONTINUOUS
10
236.6506975
20
-150.7369482
11
249.9456022
21
-153.0811986
0
LINE
8
0
6
CONTINUOUS
10
252.262514
20
-151.4588795
11
254.4331162
21
-139.1487826
0
LINE
8
0
6
CONTINUOUS
10
252.8107971
20
-136.8318708
11
239.5158924
21
-134.4876204
0
LINE
8
0
6
CONTINUOUS
10
237.1989806
20
-136.1099395
11
235.0283784
21
-148.4200364
0
LINE
8
0
6
CONTINUOUS
10
239.6027165
20
-133.9952164
11
252.8976212
21
-136.3394668
0
LINE
8
0
6
CONTINUOUS
10
255.214533
20
-134.7171477
11
257.3851352
21
-122.4070508
0
LINE
8
0
6
CONTINUOUS
10
240.4982959
20
-117.3985922
11
255.7628161
21
-120.090139
0
LINE
8
0
6
CONTINUOUS
10
237.9803974
20
-131.6783046
11
240.4982959
21
-117.3985922
0
LINE
8
0
6
CONTINUOUS
10
240.58512
20
-116.9061883
11
255.8496402
21
-119.597735
0
LINE
8
0
6
CONTINUOUS
10
258.166552
20
-117.9754159
11
260.3371542
21
-105.665319
0
LINE
8
0
6
CONTINUOUS
10
258.7148351
20
-103.3484072
11
245.4199304
21
-101.0041568
0
LINE
8
0
6
CONTINUOUS
10
240.58512
20
-116.9061883
11
243.1030186
21
-102.6264759
0
LINE
8
0
6
CONTINUOUS
10
214.6468942
20
-181.4857095
11
227.3327446
21
-186.1029814
0
LINE
8
0
6
CONTINUOUS
10
229.89617
20
-184.9076364
11
234.1714218
21
-173.1614785
0
LINE
8
0
6
CONTINUOUS
10
232.9760768
20
-170.5980531
11
220.2902264
21
-165.9807812
0
LINE
8
0
6
CONTINUOUS
10
217.726801
20
-167.1761262
11
213.4515492
21
-178.9222841
0
LINE
8
0
6
CONTINUOUS
10
230.4114463
20
-187.0595572
11
244.459217
21
-193.6101402
0
LINE
8
0
6
CONTINUOUS
10
247.1170691
20
-192.6427612
11
252.3997973
21
-181.3139138
0
LINE
8
0
6
CONTINUOUS
10
251.4324184
20
-178.6560617
11
239.1972632
21
-172.9507152
0
LINE
8
0
6
CONTINUOUS
10
236.5394111
20
-173.9180942
11
230.4114463
21
-187.0595572
0
LINE
8
0
6
CONTINUOUS
10
249.5270268
20
-196.2582992
11
261.2183698
21
-203.0082992
0
LINE
8
0
6
CONTINUOUS
10
263.9504206
20
-202.2762484
11
270.2004206
21
-191.4509308
0
LINE
8
0
6
CONTINUOUS
10
269.4683698
20
-188.71888
11
257.7770268
21
-181.96888
0
LINE
8
0
6
CONTINUOUS
10
248.794976
20
-193.5262484
11
255.044976
21
-182.7009308
0
ARC
8
0
6
CONTINUOUS
10
251.2335061
20
-178.839152
40
2
50
8.6155585
51
64.9999983
0
ARC
8
0
6
CONTINUOUS
10
257.2011367
20
-181.9250649
40
2
50
59.9999999
51
116.6966996
0
ARC
8
0
6
CONTINUOUS
10
270.8589142
20
-189.8103864
40
2
50
329.9999999
51
59.9999999
0
ARC
8
0
6
CONTINUOUS
10
262.8589142
20
-203.6667928
40
2
50
239.9999999
51
329.9999999
0
ARC
8
0
6
CONTINUOUS
10
245.2272344
20
-198.1059398
40
2
50
59.9999999
51
64.9999983
0
ARC
8
0
6
CONTINUOUS
10
214.2287749
20
-165.8226074
40
2
50
340.0000019
51
79.9999992
0
ARC
8
0
6
CONTINUOUS
10
183.4894806
20
-108.1426544
40
2
50
323.7767494
51
349.9999992
0
ARC
8
0
6
CONTINUOUS
10
181.7945128
20
-117.225519
40
2
50
143.7767494
51
178.3019515
0
ARC
8
0
6
CONTINUOUS
10
271.6413017
20
-188.3160896
40
2
50
321.4692342
51
355.8234564
0
ARC
8
0
6
CONTINUOUS
10
276.15691
20
-126.4785911
40
2
50
355.8234564
51
79.9999992
0
ARC
8
0
6
CONTINUOUS
10
261.872102
20
-119.8980875
40
2
50
170.4855463
51
259.9999992
0
ARC
8
0
6
CONTINUOUS
10
262.1479392
20
-94.0533466
40
2
50
350.4855463
51
79.9999992
0
ARC
8
0
6
CONTINUOUS
10
192.2099678
20
-81.7213953
40
2
50
79.9999992
51
169.9999992
0
ARC
8
0
6
CONTINUOUS
10
256.7770268
20
-183.7009308
40
2
50
59.9999999
51
149.9999999
0
ARC
8
0
6
CONTINUOUS
10
268.4683698
20
-190.4509308
40
2
50
329.9999999
51
59.9999999
0
ARC
8
0
6
CONTINUOUS
10
262.2183698
20
-201.2762484
40
2
50
239.9999999
51
329.9999999
0
ARC
8
0
6
CONTINUOUS
10
250.5270268
20
-194.5262484
40
2
50
149.9999999
51
239.9999999
0
ARC
8
0
6
CONTINUOUS
10
175.4603687
20
-156.6221116
40
2
50
266.9999974
51
356.9999974
0
ARC
8
0
6
CONTINUOUS
10
176.1145682
20
-144.1392425
40
2
50
356.9999974
51
86.9999974
0
ARC
8
0
6
CONTINUOUS
10
162.6330695
20
-143.432707
40
2
50
86.9999974
51
176.9999974
0
ARC
8
0
6
CONTINUOUS
10
161.97887
20
-155.9155761
40
2
50
176.9999974
51
266.9999974
0
ARC
8
0
6
CONTINUOUS
10
176.35008
20
-139.6454095
40
2
50
266.9999974
51
356.9999974
0
ARC
8
0
6
CONTINUOUS
10
177.0042795
20
-127.1625404
40
2
50
356.9999974
51
86.9999974
0
ARC
8
0
6
CONTINUOUS
10
163.5227808
20
-126.4560049
40
2
50
86.9999974
51
176.9999974
0
ARC
8
0
6
CONTINUOUS
10
162.8685813
20
-138.938874
40
2
50
176.9999974
51
266.9999974
0
ARC
8
0
6
CONTINUOUS
10
177.2397913
20
-122.6687074
40
2
50
266.9999974
51
356.9999974
0
ARC
8
0
6
CONTINUOUS
10
177.8939908
20
-110.1858383
40
2
50
356.9999974
51
86.9999974
0
ARC
8
0
6
CONTINUOUS
10
164.4124921
20
-109.4793028
40
2
50
86.9999974
51
176.9999974
0
ARC
8
0
6
CONTINUOUS
10
163.7582926
20
-121.9621719
40
2
50
176.9999974
51
266.9999974
0
ARC
8
0
6
CONTINUOUS
10
178.1295026
20
-105.6920053
40
2
50
266.9999974
51
356.9999974
0
ARC
8
0
6
CONTINUOUS
10
178.7837021
20
-93.2091362
40
2
50
356.9999974
51
86.9999974
0
ARC
8
0
6
CONTINUOUS
10
165.3022034
20
-92.5026007
40
2
50
86.9999974
51
176.9999974
0
ARC
8
0
6
CONTINUOUS
10
164.6480039
20
-104.9854698
40
2
50
176.9999974
51
266.9999974
0
ARC
8
0
6
CONTINUOUS
10
228.0167848
20
-184.2235962
40
2
50
250.0000019
51
340.0000019
0
ARC
8
0
6
CONTINUOUS
10
232.2920366
20
-172.4774383
40
2
50
340.0000019
51
70.0000019
0
ARC
8
0
6
CONTINUOUS
10
219.6061862
20
-167.8601664
40
2
50
70.0000019
51
160.0000019
0
ARC
8
0
6
CONTINUOUS
10
215.3309344
20
-179.6063243
40
2
50
160.0000019
51
250.0000019
0
ARC
8
0
6
CONTINUOUS
10
156.75
20
-156.25
40
2
50
270
51
0
0
ARC
8
0
6
CONTINUOUS
10
156.75
20
-143.75
40
2
50
0
51
90
0
ARC
8
0
6
CONTINUOUS
10
143.25
20
-143.75
40
2
50
90
51
180
0
ARC
8
0
6
CONTINUOUS
10
143.25
20
-156.25
40
2
50
180
51
270
0
ARC
8
0
6
CONTINUOUS
10
156.75
20
-139.25
40
2
50
270
51
0
0
ARC
8
0
6
CONTINUOUS
10
156.75
20
-126.75
40
2
50
0
51
90
0
ARC
8
0
6
CONTINUOUS
10
143.25
20
-126.75
40
2
50
90
51
180
0
ARC
8
0
6
CONTINUOUS
10
143.25
20
-139.25
40
2
50
180
51
270
0
ARC
8
0
6
CONTINUOUS
10
156.75
20
-122.25
40
2
50
270
51
0
0
ARC
8
0
6
CONTINUOUS
10
156.75
20
-109.75
40
2
50
0
51
90
0
ARC
8
0
6
CONTINUOUS
10
143.25
20
-109.75
40
2
50
90
51
180
0
ARC
8
0
6
CONTINUOUS
10
143.25
20
-122.25
40
2
50
180
51
270
0
ARC
8
0
6
CONTINUOUS
10
156.75
20
-105.25
40
2
50
270
51
0
0
ARC
8
0
6
CONTINUOUS
10
156.75
20
-92.75
40
2
50
0
51
90
0
ARC
8
0
6
CONTINUOUS
10
143.25
20
-92.75
40
2
50
90
51
180
0
ARC
8
0
6
CONTINUOUS
10
143.25
20
-105.25
40
2
50
180
51
270
0
ARC
8
0
6
CONTINUOUS
10
238.3520267
20
-174.7633308
40
2
50
64.9999983
51
154.9999983
0
ARC
8
0
6
CONTINUOUS
10
250.5871818
20
-180.4686773
40
2
50
334.9999983
51
64.9999983
0
ARC
8
0
6
CONTINUOUS
10
245.3044535
20
-191.7975246
40
2
50
244.9999983
51
334.9999983
0
ARC
8
0
6
CONTINUOUS
10
245.072634
20
-102.9737723
40
2
50
79.9999992
51
169.9999992
0
ARC
8
0
6
CONTINUOUS
10
258.3675387
20
-105.3180227
40
2
50
349.9999992
51
79.9999992
0
ARC
8
0
6
CONTINUOUS
10
256.1969365
20
-117.6281195
40
2
50
259.9999992
51
349.9999992
0
ARC
8
0
6
CONTINUOUS
10
201.280836
20
-118.0991954
40
2
50
259.9999992
51
349.9999992
0
ARC
8
0
6
CONTINUOUS
10
203.4514382
20
-105.7890986
40
2
50
349.9999992
51
79.9999992
0
ARC
8
0
6
CONTINUOUS
10
190.1565336
20
-103.4448482
40
2
50
79.9999992
51
169.9999992
0
ARC
8
0
6
CONTINUOUS
10
187.9859314
20
-115.754945
40
2
50
169.9999992
51
259.9999992
0
ARC
8
0
6
CONTINUOUS
10
204.232855
20
-101.3574636
40
2
50
259.9999992
51
349.9999992
0
ARC
8
0
6
CONTINUOUS
10
206.4034572
20
-89.0473668
40
2
50
349.9999992
51
79.9999992
0
ARC
8
0
6
CONTINUOUS
10
193.1085526
20
-86.7031164
40
2
50
79.9999992
51
169.9999992
0
ARC
8
0
6
CONTINUOUS
10
190.9379504
20
-99.0132132
40
2
50
169.9999992
51
259.9999992
0
ARC
8
0
6
CONTINUOUS
10
219.5283201
20
-118.2704394
40
2
50
259.9999992
51
349.9999992
0
ARC
8
0
6
CONTINUOUS
10
221.6989223
20
-105.9603426
40
2
50
349.9999992
51
79.9999992
0
ARC
8
0
6
CONTINUOUS
10
208.4040177
20
-103.6160922
40
2
50
79.9999992
51
169.9999992
0
ARC
8
0
6
CONTINUOUS
10
206.2334155
20
-115.926189
40
2
50
169.9999992
51
259.9999992
0
ARC
8
0
6
CONTINUOUS
10
222.4803391
20
-101.5287076
40
2
50
259.9999992
51
349.9999992
0
ARC
8
0
6
CONTINUOUS
10
224.6509413
20
-89.2186108
40
2
50
349.9999992
51
79.9999992
0
ARC
8
0
6
CONTINUOUS
10
211.3560367
20
-86.8743604
40
2
50
79.9999992
51
169.9999992
0
ARC
8
0
6
CONTINUOUS
10
209.1854345
20
-99.1844572
40
2
50
169.9999992
51
259.9999992
0
ARC
8
0
6
CONTINUOUS
10
238.8176933
20
-112.5328368
40
2
50
259.9999992
51
349.9999992
0
ARC
8
0
6
CONTINUOUS
10
240.9882955
20
-100.22274
40
2
50
349.9999992
51
79.9999992
0
ARC
8
0
6
CONTINUOUS
10
227.6933909
20
-97.8784896
40
2
50
79.9999992
51
169.9999992
0
ARC
8
0
6
CONTINUOUS
10
225.5227887
20
-110.1885864
40
2
50
169.9999992
51
259.9999992
0
ARC
8
0
6
CONTINUOUS
10
255.4155197
20
-122.0597544
40
2
50
349.9999992
51
79.9999992
0
ARC
8
0
6
CONTINUOUS
10
253.2449175
20
-134.3698513
40
2
50
259.9999992
51
349.9999992
0
ARC
8
0
6
CONTINUOUS
10
239.9500129
20
-132.0256009
40
2
50
169.9999992
51
259.9999992
0
ARC
8
0
6
CONTINUOUS
10
235.8656744
20
-129.2745686
40
2
50
259.9999992
51
349.9999992
0
ARC
8
0
6
CONTINUOUS
10
222.5707697
20
-126.9303182
40
2
50
169.9999992
51
259.9999992
0
ARC
8
0
6
CONTINUOUS
10
224.7413719
20
-114.6202214
40
2
50
79.9999992
51
169.9999992
0
ARC
8
0
6
CONTINUOUS
10
198.328817
20
-134.8409272
40
2
50
259.9999992
51
349.9999992
0
ARC
8
0
6
CONTINUOUS
10
200.4994192
20
-122.5308304
40
2
50
349.9999992
51
79.9999992
0
ARC
8
0
6
CONTINUOUS
10
187.2045146
20
-120.18658
40
2
50
79.9999992
51
169.9999992
0
ARC
8
0
6
CONTINUOUS
10
185.0339124
20
-132.4966768
40
2
50
169.9999992
51
259.9999992
0
ARC
8
0
6
CONTINUOUS
10
216.5763011
20
-135.0121712
40
2
50
259.9999992
51
349.9999992
0
ARC
8
0
6
CONTINUOUS
10
218.7469033
20
-122.7020744
40
2
50
349.9999992
51
79.9999992
0
ARC
8
0
6
CONTINUOUS
10
205.4519987
20
-120.357824
40
2
50
79.9999992
51
169.9999992
0
ARC
8
0
6
CONTINUOUS
10
203.2813965
20
-132.6679208
40
2
50
169.9999992
51
259.9999992
0
ARC
8
0
6
CONTINUOUS
10
195.376798
20
-151.582659
40
2
50
259.9999992
51
349.9999992
0
ARC
8
0
6
CONTINUOUS
10
197.5474002
20
-139.2725622
40
2
50
349.9999992
51
79.9999992
0
ARC
8
0
6
CONTINUOUS
10
184.2524956
20
-136.9283118
40
2
50
79.9999992
51
169.9999992
0
ARC
8
0
6
CONTINUOUS
10
182.0818934
20
-149.2384086
40
2
50
169.9999992
51
259.9999992
0
ARC
8
0
6
CONTINUOUS
10
213.6242821
20
-151.753903
40
2
50
259.9999992
51
349.9999992
0
ARC
8
0
6
CONTINUOUS
10
215.7948843
20
-139.4438062
40
2
50
349.9999992
51
79.9999992
0
ARC
8
0
6
CONTINUOUS
10
202.4999797
20
-137.0995558
40
2
50
79.9999992
51
169.9999992
0
ARC
8
0
6
CONTINUOUS
10
200.3293775
20
-149.4096526
40
2
50
169.9999992
51
259.9999992
0
ARC
8
0
6
CONTINUOUS
10
229.9616363
20
-162.7580322
40
2
50
259.9999992
51
349.9999992
0
ARC
8
0
6
CONTINUOUS
10
232.1322385
20
-150.4479354
40
2
50
349.9999992
51
79.9999992
0
ARC
8
0
6
CONTINUOUS
10
218.8373339
20
-148.103685
40
2
50
79.9999992
51
169.9999992
0
ARC
8
0
6
CONTINUOUS
10
216.6667317
20
-160.4137818
40
2
50
169.9999992
51
259.9999992
0
ARC
8
0
6
CONTINUOUS
10
232.9136553
20
-146.0163004
40
2
50
259.9999992
51
349.9999992
0
ARC
8
0
6
CONTINUOUS
10
235.0842575
20
-133.7062036
40
2
50
349.9999992
51
79.9999992
0
ARC
8
0
6
CONTINUOUS
10
221.7893529
20
-131.3619532
40
2
50
79.9999992
51
169.9999992
0
ARC
8
0
6
CONTINUOUS
10
219.6187507
20
-143.67205
40
2
50
169.9999992
51
259.9999992
0
ARC
8
0
6
CONTINUOUS
10
247.3408795
20
-167.8533149
40
2
50
259.9999992
51
349.9999992
0
ARC
8
0
6
CONTINUOUS
10
249.5114817
20
-155.5432181
40
2
50
349.9999992
51
79.9999992
0
ARC
8
0
6
CONTINUOUS
10
236.2165771
20
-153.1989677
40
2
50
79.9999992
51
169.9999992
0
ARC
8
0
6
CONTINUOUS
10
234.0459749
20
-165.5090645
40
2
50
169.9999992
51
259.9999992
0
ARC
8
0
6
CONTINUOUS
10
250.2928985
20
-151.1115831
40
2
50
259.9999992
51
349.9999992
0
ARC
8
0
6
CONTINUOUS
10
252.4635007
20
-138.8014863
40
2
50
349.9999992
51
79.9999992
0
ARC
8
0
6
CONTINUOUS
10
239.1685961
20
-136.4572359
40
2
50
79.9999992
51
169.9999992
0
ARC
8
0
6
CONTINUOUS
10
236.9979939
20
-148.7673327
40
2
50
169.9999992
51
259.9999992
0
ENDSEC
0
EOF